<svg width="123" height="123" viewBox="0 0 123 123" fill="none" xmlns="http://www.w3.org/2000/svg">
<g filter="url(#filter0_d_22_246)">
<path d="M61.699 4.86389C57.9202 4.86389 54.2962 6.36501 51.6242 9.03702C48.9522 11.709 47.451 15.333 47.451 19.1118V57.1064C47.451 60.8852 48.9522 64.5092 51.6242 67.1812C54.2962 69.8532 57.9202 71.3543 61.699 71.3543C65.4778 71.3543 69.1018 69.8532 71.7738 67.1812C74.4458 64.5092 75.9469 60.8852 75.9469 57.1064V19.1118C75.9469 15.333 74.4458 11.709 71.7738 9.03702C69.1018 6.36501 65.4778 4.86389 61.699 4.86389Z" stroke="white" stroke-width="2" stroke-linecap="round" stroke-linejoin="round"/>
<path d="M94.9442 47.6077V57.1063C94.9442 65.9235 91.4415 74.3795 85.2069 80.6142C78.9722 86.8489 70.5161 90.3515 61.6989 90.3515C52.8818 90.3515 44.4257 86.8489 38.191 80.6142C31.9563 74.3795 28.4537 65.9235 28.4537 57.1063V47.6077" stroke="white" stroke-width="2" stroke-linecap="round" stroke-linejoin="round"/>
<path d="M61.699 90.3516V109.349" stroke="white" stroke-width="2" stroke-linecap="round" stroke-linejoin="round"/>
<path d="M42.7017 109.349H80.6962" stroke="white" stroke-width="2" stroke-linecap="round" stroke-linejoin="round"/>
</g>
<defs>
<filter id="filter0_d_22_246" x="0.707153" y="0.114624" width="121.984" height="121.984" filterUnits="userSpaceOnUse" color-interpolation-filters="sRGB">
<feFlood flood-opacity="0" result="BackgroundImageFix"/>
<feColorMatrix in="SourceAlpha" type="matrix" values="0 0 0 0 0 0 0 0 0 0 0 0 0 0 0 0 0 0 127 0" result="hardAlpha"/>
<feOffset dy="4"/>
<feGaussianBlur stdDeviation="2"/>
<feComposite in2="hardAlpha" operator="out"/>
<feColorMatrix type="matrix" values="0 0 0 0 0 0 0 0 0 0 0 0 0 0 0 0 0 0 0.25 0"/>
<feBlend mode="normal" in2="BackgroundImageFix" result="effect1_dropShadow_22_246"/>
<feBlend mode="normal" in="SourceGraphic" in2="effect1_dropShadow_22_246" result="shape"/>
</filter>
</defs>
</svg>
